# xmcd
#
# Track frame offsets: 
#        150
#        1941
#        9569
#        33949
#        54456
#        75097
#        88632
#        110275
#        132259
#        156222
#        178124
#        197169
#        219139
#        229539
#        252604
#        275480
#        279907
#
# Disc length: 3747 seconds
#
# Revision: 2
# Processed by: cddbd v1.5.2PL0 Copyright (c) Steve Scherf et al.
# Submitted via: ExactAudioCopy v0.99pb1
#
DISCID=d20ea111
DTITLE=Stephen King - The Shining
DYEAR=2005
DGENRE=Speech
TTITLE0=0101
TTITLE1=0102
TTITLE2=0103
TTITLE3=0104
TTITLE4=0105
TTITLE5=0106
TTITLE6=0107
TTITLE7=0108
TTITLE8=0109
TTITLE9=0110
TTITLE10=0111
TTITLE11=0112
TTITLE12=0113
TTITLE13=0114
TTITLE14=0115
TTITLE15=0116
TTITLE16=0117
EXTD=
EXTT0=
EXTT1=
EXTT2=
EXTT3=
EXTT4=
EXTT5=
EXTT6=
EXTT7=
EXTT8=
EXTT9=
EXTT10=
EXTT11=
EXTT12=
EXTT13=
EXTT14=
EXTT15=
EXTT16=
PLAYORDER=
